<svg id="Layer_1" data-name="Layer 1" xmlns="http://www.w3.org/2000/svg" viewBox="0 0 462.22 263.02"><title>lzg logo</title><path d="M92.14,335.61" transform="translate(-120.97 -129.66)"/><path d="M121,199.89c-.23-.13.17-.55,0,0Z" transform="translate(-120.97 -129.66)"/><path d="M338.58,388.84l.91-.26Zm-42,2.06a78.9,78.9,0,0,0,26.67,1.16,96.34,96.34,0,0,0,15.33-3.22C331.41,390.81,314.84,394.3,296.58,390.9Zm-21.52-7.19a26.1,26.1,0,0,0,6.95,3,69,69,0,0,1-10-5C273,382.35,274,383,275.06,383.71Z" transform="translate(-120.97 -129.66)" style="fill:#a31717"/><path d="M580.48,299.88c2.71.33,3.36-.55,2.07-2.84a36.68,36.68,0,0,0-7.77-8.9,47.54,47.54,0,0,0-7.63-5.72l3.17-.43c2.79-.37,3.73-2.54,2.16-4.88s-4-3.82-6.56-5.14c-4.16-2.18-8.7-3.53-13.29-5.3.32-.3.45-.46.61-.49,3.92-1,4-3.51,1.3-6.24a31.46,31.46,0,0,0-4.21-3.66l-12.45-7.4s-1.68,3.81,6.21,9.57-6.66,11,5.31,12.94c.87.19,1.78.44,2.65.68,3.39.94,7,1.57,10.19,3.3.9.48,2.12.94,1.94,2.07s-1.49.87-2.4,1c-1.42.32-2.91.39-4.3.78s-2.91,1-2.85,2.65,1.89,1.73,3.08,2.1a50.27,50.27,0,0,1,9.83,3.75,19.79,19.79,0,0,1,5.85,4.4c.42.52,1,1.13.72,1.78s-1.14.36-1.75.32c-1-.05-2-.18-2.91-.25a14.84,14.84,0,0,0-7,.67c-2.23.94-2.23,2-.07,3.35A39.43,39.43,0,0,1,574,308.28a37,37,0,0,1,3.82,6.67c.22.52.48,1.1,0,1.52s-1,0-1.46-.16a11.55,11.55,0,0,1-3.07-1.61c-1.88-1.24-3.65-2.69-5.92-3.4-1.23-.39-2.52-.65-3.43.26s0,1.81.46,2.65c3.86,7.26,2.69,14.52.64,21.54-.16.57-.35,1.46-1.19,1.39s-1-.95-1.2-1.52A67.43,67.43,0,0,0,555.67,323c-6.51-9.47-15.32-16.85-25.23-23.16-5.46-3.48-11.22-6.63-16-11a12.59,12.59,0,0,1-1.13-1.07c-3.53-3.43-6.27-7.29-6.5-12.2v0a7.15,7.15,0,0,1,3-6.05l16-11.76a13,13,0,0,0,.38-20.79,58.86,58.86,0,0,0-9.81-6.15,57.84,57.84,0,0,0-26-6.15q-23.53,0-41,17.11T431.93,287.3v37.85A13.87,13.87,0,0,1,418.06,339H403.24a1,1,0,0,1-.91-1.4l40.2-92.22a12.14,12.14,0,0,0-11.13-17h-83c-.17-3.49-.43-7-.91-10.44-1.08-7.78-2.48-15.5-7.31-21.87-5.82-7.67-10.27-7.26-15.07,1.2-1.16,2-2.3,4.11-4.24,7.57A124.78,124.78,0,0,0,312.78,179a131.15,131.15,0,0,0-11-21.06c-7.67-11.69-11.83-13-14.22-3.63-1.78,7-3.35,14.16-5,21.18-.46,2-1.06,4-1.78,6.44-2.91-2.46-2.73-5.74-4-8.19a92.65,92.65,0,0,1-4.56-11.81c-4.13-11.92-11.37-20.84-22.12-26.87-6-3.39-11.91-6.52-18.82-5-5.52,1.2-7.48,4.31-7.57,10.25-.07,4.52,1.37,8.8,2.65,13,1.17,3.8,0,4.6-3.3,3.43-7.93-2.79-15.64-6.52-24-8.25-14.43-3-28.09-1.21-40.88,6.79-3.68,2.3-3.69,4.11-1.2,7.38,10.14,13.29,20,27,30.11,40.07,17.7,22.77,31,56.8,35.9,84.93,3,17.17,6,35,13.33,51.3A102,102,0,0,0,253.26,365,109,109,0,0,0,272,381.65a69,69,0,0,0,10,5c2.07.61,4.19,1.16,6.22,1.86a76.2,76.2,0,0,0,8.35,2.37c19.08,3.55,36.32-.42,42.91-2.32l.63-.18,1.89-.6.33-.11,1.26-.41a71.07,71.07,0,0,1,22.22-3.57H478.27V343.22a15.36,15.36,0,0,0,15.37-15.36v-26.1H478.27V282.42q0-14.9,10.48-14.91c5.57,0,9.38,3,11.39,9.08l.13-.09a38.52,38.52,0,0,0,10.48,16.62c4.68,4.49,10.43,7.63,16,10.93,10,5.92,18.55,13.24,24.8,22.68,3.34,5,6.76,10,10.09,15.07.81,1.23,1.44,1.46,2.69.55a18.09,18.09,0,0,0,7.31-12.62c.41-2.93.09-6,.09-9,0-1.23.42-1.52,1.59-.65a15.56,15.56,0,0,0,4.14,2.55c2,.71,3.36.49,4.46-1.19,1.36-2.07,1-4.41.55-6.83A17.19,17.19,0,0,0,576.05,304c-1.26-1-2.53-2.05-3.66-3.14-.7-.68-1.78-1.07-2.26-2.29.93.09,1.68.12,2.42.22C575.2,299.13,577.83,299.56,580.48,299.88Zm-213.74,4.51L341,363.87a33.36,33.36,0,0,1-4.82,7.88c-59.27,23.43-96.56-47.64-105.25-66.49-.92-4.51-1.81-9-2.73-13.46-5.93-28.67-19.08-62.66-36.8-86.42-8-10.7-14.17-22.64-24.1-31.57-1.32-1.2-1.65-2.46-.94-4.69,0,0,0-.07,0-.1-.75-.42.55-1.78,0,0a.81.81,0,0,0,.48.13c21.06,1.26,41.11,5.49,56.8,22.12,1.83,1.94,3.69,5,6.69,3.66,3.26-1.46,3.87-5,4.08-8.54.38-6.38-1.78-12.26-3.21-18.27-.74-3.14-1.5-6.23-1.26-9.45.11-1.35-.48-3.14,1-3.88s2.88.52,4,1.52a97.21,97.21,0,0,1,14.91,17.34c5.2,7.5,9.38,15.56,11.32,24.32,6.77,30.67,21.38-.26,21.38-.26.74-2.52,1.39-5.11,2.19-7.63.52-1.62.53-4,2.56-4.17s3.1,1.88,4.07,3.49c3.51,5.78,4.82,12.42,5.92,19.11,1.58,9.57.81,19.12.26,28.72-.19,3.43-1.81,8.13,2.59,9.87s7.44-1.6,9.86-4.79,4.11-6.94,6.31-10.28c1.38-2.1,5-8.12,5.18-5.11.81,15.74,3.81,25.87,8,32.05a6.19,6.19,0,0,0,.75,1.79,11.9,11.9,0,0,1,.83,1.76,35.3,35.3,0,0,0,2.54,2.77c.42.44.84.87,1.27,1.28.59.31,1.16.65,1.71,1s1.07.75,1.59,1.14c5.89,4.16,12.36,4.16,18.68,7.07.61.33,1.19.69,1.76,1.07A22.39,22.39,0,0,1,366.74,304.39Z" transform="translate(-120.97 -129.66)" style="fill:#a31717"/><path d="M272,381.65A72,72,0,0,1,253.26,365,109,109,0,0,0,272,381.65Z" transform="translate(-120.97 -129.66)" style="fill:#a31717"/><path d="M288.23,388.53a76.2,76.2,0,0,0,8.35,2.37A75.46,75.46,0,0,1,282,386.67C284.08,387.28,286.2,387.83,288.23,388.53Z" transform="translate(-120.97 -129.66)" style="fill:#a31717"/><path d="M342,387.8c-.36.13-1,.34-1.89.6Z" transform="translate(-120.97 -129.66)" style="fill:#a31717"/></svg>